<svg width="100" height="100" viewBox="0 0 100 100" fill="none" xmlns="http://www.w3.org/2000/svg">
<g clip-path="url(#clip0_25_12)">
<path d="M50 97.3873C76.1713 97.3873 97.3873 76.1713 97.3873 50C97.3873 23.8287 76.1713 2.61267 50 2.61267C23.8287 2.61267 2.61267 23.8287 2.61267 50C2.61267 76.1713 23.8287 97.3873 50 97.3873Z" fill="#177C75" stroke="black" stroke-width="5.22533"/>
<path d="M40.3948 31.7425C38.9459 31.7424 37.5113 32.0277 36.1727 32.5821C34.8341 33.1365 33.6179 33.9491 32.5934 34.9736C31.5689 35.9981 30.7562 37.2144 30.2018 38.5529C29.6474 39.8915 29.3621 41.3262 29.3622 42.775C29.3693 45.5969 30.4576 48.3088 32.403 50.3528C34.3485 52.3969 37.0034 53.6177 39.8214 53.7642C39.1067 55.2466 38.7327 56.8702 38.7269 58.516C38.729 61.4405 39.8923 64.2446 41.9611 66.3118C44.0299 68.3789 46.8349 69.54 49.7594 69.5398C52.684 69.54 55.489 68.3789 57.5578 66.3118C59.6266 64.2446 60.7899 61.4405 60.792 58.516C60.7917 56.8781 60.4267 55.2608 59.7235 53.7815C62.5951 53.7071 65.3244 52.5155 67.3311 50.4601C69.3379 48.4047 70.4637 45.6476 70.4693 42.775C70.4696 39.8505 69.3085 37.0455 67.2413 34.9767C65.1741 32.9079 62.3701 31.7446 59.4455 31.7425C57.5171 31.7456 55.6232 32.2542 53.9526 33.2175C52.282 34.1808 50.8932 35.5652 49.9245 37.2327C48.955 35.564 47.5648 34.1788 45.8926 33.2154C44.2204 32.252 42.3247 31.7441 40.3948 31.7425Z" fill="#EBDFA1" stroke="black" stroke-width="2.62" stroke-linejoin="round"/>
</g>
<defs>
<clipPath id="clip0_25_12">
<rect width="100" height="100" fill="white"/>
</clipPath>
</defs>
</svg>
