<svg width="100" height="100" viewBox="0 0 100 100" fill="none" xmlns="http://www.w3.org/2000/svg">
<g clip-path="url(#clip0_25_19)">
<path d="M50 97.3873C76.1713 97.3873 97.3873 76.1713 97.3873 50C97.3873 23.8287 76.1713 2.61267 50 2.61267C23.8287 2.61267 2.61267 23.8287 2.61267 50C2.61267 76.1713 23.8287 97.3873 50 97.3873Z" fill="#9A4F38" stroke="black" stroke-width="5.22533"/>
<path d="M67.8279 38.9264C55.3721 34.7886 44.4331 37.1592 39.0397 41.9325C37.752 43.0644 36.8358 44.1947 35.9788 45.7101C35.6209 46.3426 35.051 47.6256 34.8367 48.2899C33.1538 55.3074 34.4243 60.0619 39.1273 64.5461C39.4166 64.7528 39.7868 65.0242 39.9512 65.1472C42.8582 67.5572 45.052 67.8425 48.6859 68.1576C51.5193 68.1692 53.9461 67.4356 56.8487 64.2781C63.4605 56.4493 51.5482 51.4192 53.542 45.2409C54.5147 40.9977 62.3135 39.3642 67.8279 38.9264Z" fill="#EBDFA1" stroke="black" stroke-width="2.62364" stroke-linecap="round" stroke-linejoin="round"/>
</g>
<defs>
<clipPath id="clip0_25_19">
<rect width="100" height="100" fill="white"/>
</clipPath>
</defs>
</svg>
