<svg width="100" height="100" viewBox="0 0 100 100" fill="none" xmlns="http://www.w3.org/2000/svg">
<g clip-path="url(#clip0_25_7)">
<path d="M49.9999 97.3872C76.1712 97.3872 97.3872 76.1712 97.3872 49.9999C97.3872 23.8286 76.1712 2.61255 49.9999 2.61255C23.8286 2.61255 2.61255 23.8286 2.61255 49.9999C2.61255 76.1712 23.8286 97.3872 49.9999 97.3872Z" fill="#3F7E2D" stroke="black" stroke-width="4.79848"/>
<path d="M48.8959 25.8571L25.8573 48.8957C25.2475 49.5055 25.2475 50.4942 25.8573 51.104L48.8959 74.1426C49.5057 74.7524 50.4944 74.7524 51.1042 74.1426L74.1428 51.104C74.7526 50.4942 74.7526 49.5055 74.1428 48.8957L51.1042 25.8571C50.4944 25.2473 49.5057 25.2473 48.8959 25.8571Z" fill="#EBDFA1" stroke="black" stroke-width="2.62" stroke-linejoin="round"/>
</g>
<defs>
<clipPath id="clip0_25_7">
<rect width="100" height="100" fill="white"/>
</clipPath>
</defs>
</svg>
