<svg width="100" height="100" viewBox="0 0 100 100" fill="none" xmlns="http://www.w3.org/2000/svg">
<g clip-path="url(#clip0_25_13)">
<path d="M50 97.3873C76.1713 97.3873 97.3873 76.1713 97.3873 50C97.3873 23.8287 76.1713 2.61267 50 2.61267C23.8287 2.61267 2.61267 23.8287 2.61267 50C2.61267 76.1713 23.8287 97.3873 50 97.3873Z" fill="#3A4336" stroke="black" stroke-width="5.22533"/>
<path d="M59.1725 31.783L51.6458 24.2563C51.04 23.6505 50.0578 23.6505 49.4519 24.2563L24.257 49.4512C23.6512 50.057 23.6512 51.0393 24.257 51.6451L31.7837 59.1718C32.3895 59.7776 33.3718 59.7776 33.9776 59.1718L59.1725 33.9769C59.7783 33.3711 59.7783 32.3888 59.1725 31.783Z" fill="#EBDFA1" stroke="black" stroke-width="2.62" stroke-linejoin="round"/>
<path d="M75.7436 48.3546L68.2169 40.828C67.6111 40.2221 66.6288 40.2221 66.023 40.828L40.8281 66.0229C40.2223 66.6287 40.2223 67.6109 40.8281 68.2168L48.3548 75.7434C48.9606 76.3493 49.9428 76.3493 50.5487 75.7434L75.7436 50.5485C76.3494 49.9427 76.3494 48.9605 75.7436 48.3546Z" fill="#EBDFA1" stroke="black" stroke-width="2.62" stroke-linejoin="round"/>
</g>
<defs>
<clipPath id="clip0_25_13">
<rect width="100" height="100" fill="white"/>
</clipPath>
</defs>
</svg>
