<svg width="100" height="100" viewBox="0 0 100 100" fill="none" xmlns="http://www.w3.org/2000/svg">
<g clip-path="url(#clip0_25_20)">
<path d="M49.9999 97.3873C76.1712 97.3873 97.3872 76.1713 97.3872 50C97.3872 23.8287 76.1712 2.61267 49.9999 2.61267C23.8286 2.61267 2.61255 23.8287 2.61255 50C2.61255 76.1713 23.8286 97.3873 49.9999 97.3873Z" fill="#C95A2C" stroke="black" stroke-width="5.22533"/>
<path d="M40.2825 35.9178C40.2053 35.924 39.9554 35.9516 39.7271 35.9795C35.1451 36.5103 31.3839 39.9753 30.4675 44.5079C30.0571 46.5443 30.2608 49.1578 30.9951 51.367C31.7726 53.6904 33.0778 55.7206 35.3055 58.0687C36.3608 59.1795 37.2618 60.0126 40.2053 62.6044C43.3892 65.3123 46.8169 68.4154 49.2023 70.6626L49.6034 71.2272H50.0107L50.418 71.2242L50.8191 70.6317C54.2935 66.818 57.7028 64.2542 60.7301 61.5492C63.6764 58.9165 65.1887 57.4053 66.4105 55.841C68.3945 53.2954 69.3973 50.8949 69.6935 47.9637C69.7521 47.3589 69.7459 45.9118 69.6779 45.3873C69.3541 42.9035 68.3173 40.7683 66.5987 39.0497C64.8801 37.331 62.7418 36.2912 60.2611 35.9703C59.6656 35.8963 58.3697 35.8963 57.7618 35.9703C55.5001 36.2573 53.5069 37.1644 51.8376 38.667C51.074 39.2901 50.6004 40.106 50.0017 40.8022C48.2674 37.9599 44.9669 36.8999 42.3713 35.9919C41.9208 35.9302 40.6373 35.887 40.2825 35.9178Z" fill="#EBDFA1" stroke="black" stroke-width="2.63636" stroke-linecap="round" stroke-linejoin="round"/>
</g>
<defs>
<clipPath id="clip0_25_20">
<rect width="100" height="100" fill="white"/>
</clipPath>
</defs>
</svg>
