<svg width="100" height="100" viewBox="0 0 100 100" fill="none" xmlns="http://www.w3.org/2000/svg">
<g clip-path="url(#clip0_25_8)">
<path d="M49.9999 97.3872C76.1712 97.3872 97.3872 76.1712 97.3872 49.9999C97.3872 23.8286 76.1712 2.61255 49.9999 2.61255C23.8286 2.61255 2.61255 23.8286 2.61255 49.9999C2.61255 76.1712 23.8286 97.3872 49.9999 97.3872Z" fill="#4F2326" stroke="black" stroke-width="4.79848"/>
<path d="M45.0831 32.3391C44.2217 32.3391 43.5281 33.0328 43.5281 33.8941V43.528H33.8942C33.0328 43.528 32.3392 44.2217 32.3392 45.083V54.9254C32.3392 55.7868 33.0328 56.4804 33.8942 56.4804H43.5281V66.1057C43.5281 66.967 44.2217 67.6606 45.0831 67.6606H54.9255C55.7868 67.6606 56.4805 66.967 56.4805 66.1057V56.4804H66.1057C66.967 56.4804 67.6607 55.7868 67.6607 54.9254V45.083C67.6607 44.2217 66.967 43.528 66.1057 43.528H56.4805V33.8941C56.4805 33.0328 55.7868 32.3391 54.9255 32.3391H45.0831Z" fill="#EBDFA1" stroke="black" stroke-width="2.62" stroke-linejoin="round"/>
</g>
<defs>
<clipPath id="clip0_25_8">
<rect width="100" height="100" fill="white"/>
</clipPath>
</defs>
</svg>
