<svg width="100" height="100" viewBox="0 0 100 100" fill="none" xmlns="http://www.w3.org/2000/svg">
<g clip-path="url(#clip0_25_18)">
<path d="M50 97.3873C76.1708 97.3873 97.3865 76.1713 97.3865 50C97.3865 23.8287 76.1708 2.61267 50 2.61267C23.8291 2.61267 2.61346 23.8287 2.61346 50C2.61346 76.1713 23.8291 97.3873 50 97.3873Z" fill="#C35771" stroke="black" stroke-width="5.22533"/>
<path fill-rule="evenodd" clip-rule="evenodd" d="M38.1855 40.4348C20.0631 53.4631 32.7072 69.9151 45.4531 62.0516C45.5225 66.108 43.3653 70.549 41.9741 74.1702H59.6567C58.3112 70.5014 55.6546 66.1199 55.5317 62.0516C68.5448 69.5271 78.9505 52.8196 61.8617 40.4348C53.9617 33.0753 52.3571 28.1738 50.4816 25.253C44.6922 33.1629 44.3676 34.3058 38.1855 40.4348Z" fill="#EBDFA1" stroke="black" stroke-width="2.62364" stroke-linejoin="round"/>
</g>
<defs>
<clipPath id="clip0_25_18">
<rect width="100" height="100" fill="white"/>
</clipPath>
</defs>
</svg>
