<svg width="100" height="100" viewBox="0 0 100 100" fill="none" xmlns="http://www.w3.org/2000/svg">
<g clip-path="url(#clip0_25_10)">
<path d="M49.9999 97.3872C76.1712 97.3872 97.3872 76.1712 97.3872 49.9999C97.3872 23.8286 76.1712 2.61255 49.9999 2.61255C23.8286 2.61255 2.61255 23.8286 2.61255 49.9999C2.61255 76.1712 23.8286 97.3872 49.9999 97.3872Z" fill="#991423" stroke="black" stroke-width="4.79848"/>
<path d="M66.2906 32.1476H33.7091C32.8467 32.1476 32.1476 32.8467 32.1476 33.7091V66.2906C32.1476 67.153 32.8467 67.8521 33.7091 67.8521H66.2906C67.153 67.8521 67.8521 67.153 67.8521 66.2906V33.7091C67.8521 32.8467 67.153 32.1476 66.2906 32.1476Z" fill="#EBDFA1" stroke="black" stroke-width="2.62" stroke-linejoin="round"/>
</g>
<defs>
<clipPath id="clip0_25_10">
<rect width="100" height="100" fill="white"/>
</clipPath>
</defs>
</svg>
