<svg width="100" height="100" viewBox="0 0 100 100" fill="none" xmlns="http://www.w3.org/2000/svg">
<g clip-path="url(#clip0_25_16)">
<path d="M50 97.3873C76.1713 97.3873 97.3873 76.1713 97.3873 50C97.3873 23.8287 76.1713 2.61267 50 2.61267C23.8287 2.61267 2.61267 23.8287 2.61267 50C2.61267 76.1713 23.8287 97.3873 50 97.3873Z" fill="#22202D" stroke="black" stroke-width="5.22533"/>
<path d="M33.1325 35.7107C32.0896 35.7107 31.2474 36.5442 31.2474 37.5871V49.2799C31.2474 50.3227 32.0896 51.1649 33.1325 51.1649H43.0792V62.4407C43.0792 63.1594 43.6636 63.7351 44.3822 63.7351H55.6059C56.3246 63.7351 56.9003 63.1594 56.9003 62.4407V51.1649H66.847C67.8898 51.1649 68.732 50.3227 68.732 49.2799V37.5871C68.732 36.5442 67.8898 35.7107 66.847 35.7107H33.1325Z" fill="#EBDFA1" stroke="black" stroke-width="2.62" stroke-linejoin="round"/>
</g>
<defs>
<clipPath id="clip0_25_16">
<rect width="100" height="100" fill="white"/>
</clipPath>
</defs>
</svg>
