<?xml version="1.0" encoding="UTF-8" standalone="no"?>
<!-- Created with Inkscape (http://www.inkscape.org/) -->

<svg
   xmlns:dc="http://purl.org/dc/elements/1.1/"
   xmlns:cc="http://creativecommons.org/ns#"
   xmlns:rdf="http://www.w3.org/1999/02/22-rdf-syntax-ns#"
   xmlns:svg="http://www.w3.org/2000/svg"
   xmlns="http://www.w3.org/2000/svg"
   xmlns:sodipodi="http://sodipodi.sourceforge.net/DTD/sodipodi-0.dtd"
   xmlns:inkscape="http://www.inkscape.org/namespaces/inkscape"
   width="3.4465292mm"
   height="3.5139904mm"
   viewBox="0 0 3.4465292 3.5139904"
   version="1.1"
   id="svg78276"
   inkscape:version="0.92.2 (5c3e80d, 2017-08-06)"
   sodipodi:docname="set1.svg">
  <defs
     id="defs78270">
    <clipPath
       id="clip2">
      <path
         inkscape:connector-curvature="0"
         d="m 139.32422,76.320312 h 10.07812 v 10.078126 h -10.07812 z m 0,0"
         id="path61497" />
    </clipPath>
  </defs>
  <sodipodi:namedview
     id="base"
     pagecolor="#ffffff"
     bordercolor="#666666"
     borderopacity="1.0"
     inkscape:pageopacity="0.0"
     inkscape:pageshadow="2"
     inkscape:zoom="0.35"
     inkscape:cx="863.65598"
     inkscape:cy="-787.6451"
     inkscape:document-units="mm"
     inkscape:current-layer="layer1"
     showgrid="false"
     inkscape:window-width="900"
     inkscape:window-height="774"
     inkscape:window-x="0"
     inkscape:window-y="0"
     inkscape:window-maximized="1" />
  <metadata
     id="metadata78273">
    <rdf:RDF>
      <cc:Work
         rdf:about="">
        <dc:format>image/svg+xml</dc:format>
        <dc:type
           rdf:resource="http://purl.org/dc/dcmitype/StillImage" />
        <dc:title></dc:title>
      </cc:Work>
    </rdf:RDF>
  </metadata>
  <g
     inkscape:label="Layer 1"
     inkscape:groupmode="layer"
     id="layer1"
     transform="translate(122.67564,63.078424)">
    <g
       transform="matrix(0.35277777,0,0,0.35277777,-171.85664,-90.023206)"
       style="clip-rule:nonzero"
       id="g61860"
       clip-path="url(#clip2)">
      <path
         inkscape:connector-curvature="0"
         id="path61858"
         d="m 144.73828,81.324219 c 0.14844,0.01953 0.28125,-0.01953 0.39453,-0.09766 0.15235,-0.105468 0.29688,-0.21875 0.44531,-0.328124 0.17188,-0.117188 0.21485,-0.289063 0.20704,-0.484376 -0.004,-0.101562 -0.0469,-0.179687 -0.13282,-0.238281 -0.17578,-0.125 -0.375,-0.144531 -0.58984,-0.125 0.004,0.03516 0.008,0.06641 0.008,0.09766 -0.16406,0.03906 -0.33984,-0.01953 -0.49609,0.109374 0.043,0.01172 0.0742,0.01563 0.10156,0.02734 0.10156,0.03906 0.21094,0.07422 0.30859,0.125 0.25391,0.144532 0.22266,0.386719 0.0469,0.605469 -0.0859,0.109375 -0.19531,0.207031 -0.29297,0.308594 m -1.21484,-1.121094 c -0.0352,0 -0.082,-0.01172 -0.11719,0 -0.20313,0.05469 -0.40234,0.121094 -0.58203,0.234375 -0.21094,0.132812 -0.32813,0.320312 -0.35938,0.566406 -0.0195,0.167969 0.0664,0.324219 0.21485,0.414063 0.3164,0.199219 0.66406,0.246093 1.03125,0.234375 0.0742,-0.0039 0.14843,-0.01563 0.22265,-0.02344 0,-0.0078 0,-0.01953 0,-0.02734 -0.0352,-0.0078 -0.0742,-0.01562 -0.10937,-0.02734 -0.0273,-0.0078 -0.0586,-0.01953 -0.082,-0.03516 -0.0312,-0.02344 -0.0586,-0.05469 -0.0937,-0.07812 -0.0664,-0.04297 -0.14063,-0.07813 -0.20313,-0.128907 -0.2539,-0.1875 -0.3125,-0.492187 -0.14453,-0.761719 0.0781,-0.117187 0.14844,-0.242187 0.22266,-0.367187 m 0.27343,0.164063 c -0.0117,0 -0.0195,0 -0.0234,0.0039 -0.0117,0.0078 -0.0234,0.01563 -0.0273,0.02734 -0.0625,0.132812 -0.14062,0.261718 -0.17968,0.402343 -0.0469,0.191407 0.004,0.363281 0.16015,0.5 0.17969,0.15625 0.37891,0.265625 0.61328,0.308594 0.10938,0.01953 0.22266,0.01953 0.33594,0.03125 0.004,-0.0078 0.004,-0.01953 0.008,-0.02734 -0.0117,-0.01953 -0.0195,-0.03516 -0.0352,-0.05469 -0.0742,-0.109375 -0.10938,-0.21875 -0.0625,-0.351563 0.0469,-0.125 0.0742,-0.257812 0.10156,-0.390625 0.0234,-0.121094 -0.008,-0.234375 -0.0781,-0.339844 -0.14453,-0.214843 -0.34375,-0.367187 -0.55078,-0.511718 -0.0234,-0.01563 -0.0508,-0.01563 -0.0977,-0.03125 0.16406,0.308594 0.10156,0.589844 -0.0195,0.875 -0.15235,-0.121094 -0.11329,-0.289063 -0.14454,-0.441406 m 3.0586,-0.675782 c 0.004,0.01172 0.0117,0.02344 0.0195,0.03516 -0.0547,0.07813 -0.10547,0.160157 -0.16406,0.234376 -0.0273,0.04297 -0.0625,0.07812 -0.0977,0.117187 -0.0508,0.06641 -0.0937,0.136719 -0.15625,0.195313 -0.14453,0.128906 -0.29687,0.257812 -0.44922,0.378906 -0.50781,0.414062 -0.97656,0.867187 -1.39453,1.375 -0.0312,0.03906 -0.0469,0.113281 -0.0352,0.160156 0.0234,0.06641 0.10157,0.08594 0.16407,0.0625 0.0586,-0.01563 0.11328,-0.05078 0.15625,-0.09375 0.36718,-0.367188 0.78125,-0.679688 1.19922,-0.984375 0.46093,-0.339844 0.92968,-0.667969 1.39453,-1.007813 0.58593,-0.425781 1.10156,-0.929687 1.63281,-1.417968 0.0156,-0.01563 0.0273,-0.03516 0.0391,-0.05078 -0.004,-0.0039 -0.008,-0.01172 -0.008,-0.01953 -0.50391,0.140625 -1.00391,0.28125 -1.50391,0.417969 0.008,0.03516 0.0117,0.05469 0.0156,0.07813 -0.21875,0.03906 -0.4336,0.07813 -0.64844,0.113281 -0.21484,0.03516 -0.42969,0.07031 -0.64453,0.101563 0,0.01172 0,0.01953 0,0.02734 0.0234,0.01953 0.0508,0.04297 0.0859,0.07031 -0.13672,0.01953 -0.26172,0.03516 -0.39063,0.05078 0.0781,0.144532 0.1875,0.199219 0.33594,0.183594 0.14844,-0.01563 0.29687,-0.01953 0.44922,-0.02734 m -2.5625,-1.527344 c -0.0352,-0.02734 -0.0547,-0.04687 -0.0742,-0.0625 -0.24219,-0.191406 -0.45313,-0.414062 -0.63281,-0.667968 -0.21485,-0.308594 -0.375,-0.644532 -0.53907,-0.984375 -0.008,-0.02344 -0.0273,-0.04687 -0.043,-0.07031 -0.008,0.0039 -0.0195,0.0039 -0.0273,0.0078 -0.008,0.09766 -0.0117,0.195312 -0.0195,0.292969 -0.004,-0.0039 -0.0117,-0.0078 -0.0195,-0.01172 -0.0195,0.02344 -0.0508,0.04297 -0.0586,0.07031 -0.0625,0.21875 -0.125,0.4375 -0.17969,0.660157 -0.0898,0.339843 -0.17578,0.679687 -0.26563,1.019531 -0.0547,0.203125 -0.10547,0.40625 -0.16015,0.609375 -0.0195,0.07031 0.0117,0.08984 0.0703,0.09766 0.10937,0.01563 0.22266,0.02734 0.32812,0.05469 0.0781,0.01953 0.0937,-0.01563 0.10938,-0.07422 0.0586,-0.175781 0.11719,-0.355469 0.1875,-0.527344 0.043,-0.109375 0.0859,-0.109375 0.17969,-0.02734 0.11718,0.105469 0.24218,0.203125 0.36718,0.304688 0.0117,0.0078 0.0273,0.01172 0.0508,0.01953 -0.0234,-0.09766 -0.043,-0.183594 -0.0625,-0.269531 0.21093,0.175781 0.4375,0.316406 0.6875,0.425781 -0.0273,-0.05078 -0.0547,-0.101562 -0.082,-0.148438 0.008,-0.0078 0.0117,-0.01172 0.0156,-0.01562 0.25,0.183593 0.5,0.371093 0.75,0.550781 0.32812,0.238281 0.66016,0.46875 0.99219,0.703125 0.0391,0.02734 0.0937,0.07031 0.12109,0.05859 0.0664,-0.02344 0.125,-0.07422 0.17578,-0.128907 0.008,-0.0078 -0.0391,-0.07422 -0.0625,-0.109375 -0.0195,-0.03125 -0.0469,-0.05859 -0.0703,-0.08594 -0.55469,-0.59375 -1.16406,-1.121094 -1.8125,-1.609375 -0.0195,-0.01563 -0.0391,-0.03516 -0.0703,-0.06641 0.0547,-0.0039 0.0898,-0.0078 0.14453,-0.01563 m -3.02344,1.644532 c -0.0547,-0.04297 -0.0937,-0.07031 -0.13281,-0.101563 0.004,-0.0039 0.004,-0.0078 0.008,-0.01563 0.22266,0.01953 0.44531,0.03906 0.66797,0.05859 0,-0.01172 0.004,-0.02344 0.004,-0.03516 -0.21485,-0.07813 -0.4336,-0.160156 -0.65235,-0.242188 0.004,-0.0078 0.004,-0.01563 0.008,-0.02344 0.0508,0.01172 0.10157,0.01953 0.15235,0.03516 0.63672,0.191406 1.29297,0.285156 1.95703,0.324219 0.57422,0.03125 1.15234,0.02734 1.72656,0.03516 0.0352,0 0.0703,-0.01172 0.1211,-0.01953 -0.0742,-0.08594 -0.12891,-0.164063 -0.19922,-0.21875 -0.0547,-0.04687 -0.13282,-0.08594 -0.19922,-0.09375 -0.56641,-0.03125 -1.12891,-0.07422 -1.6875,-0.152344 -0.32031,-0.04687 -0.64844,-0.0625 -0.96094,-0.132813 -0.51562,-0.121093 -1.02344,-0.273437 -1.53125,-0.414062 -0.35156,-0.09766 -0.6875,-0.234375 -0.98047,-0.457031 -0.0273,-0.02344 -0.0625,-0.03906 -0.0977,-0.05078 -0.043,-0.01172 -0.0742,-0.0039 -0.0586,0.05469 0.004,0.02344 0.0117,0.04297 0.0195,0.0625 0.125,0.398437 0.3125,0.761719 0.55469,1.097656 0.47266,0.652344 1.07813,1.160157 1.73828,1.609375 0.0117,0.0078 0.0273,0.0078 0.0547,0.01953 0.0195,-0.09766 0.0312,-0.191407 0.0547,-0.28125 0.0469,-0.152344 0.0156,-0.21875 -0.14453,-0.324219 -0.0469,-0.03125 -0.10157,-0.05469 -0.14454,-0.08984 -0.21875,-0.191406 -0.4375,-0.386719 -0.66015,-0.578125 -0.043,-0.03906 -0.0859,-0.07422 -0.12891,-0.109375 l 0.0195,-0.01953 c 0.15625,0.02344 0.30469,0.121094 0.49219,0.0625 m 1.27734,3.425781 c 0,-0.03516 0,-0.05859 -0.004,-0.08203 -0.0352,-0.402344 -0.082,-0.804688 -0.10938,-1.210938 -0.043,-0.644531 -0.0312,-1.285156 0.11328,-1.917968 0.0156,-0.06641 -0.0117,-0.08984 -0.0742,-0.09766 -0.0937,-0.0039 -0.1836,-0.01563 -0.27344,-0.03125 -0.0781,-0.01953 -0.10156,0.0078 -0.10938,0.07813 -0.0586,0.382813 -0.1289,0.765625 -0.17187,1.152344 -0.0703,0.578125 -0.12891,1.160156 -0.17969,1.742188 -0.0391,0.441406 -0.0195,0.882812 0.0469,1.324218 0,0.01172 -0.008,0.02344 -0.0156,0.05859 -0.0586,-0.175781 -0.10937,-0.335938 -0.16016,-0.492188 -0.0156,0.08984 -0.0273,0.171876 -0.0156,0.257813 0.0742,0.617187 0.25391,1.207031 0.53516,1.761719 0.0742,0.144531 0.16796,0.285156 0.26171,0.421875 0.0312,0.05078 0.0859,0.09375 0.12891,0.140625 0.008,-0.0039 0.0156,-0.01172 0.0234,-0.01563 -0.0547,-0.277344 -0.11328,-0.558594 -0.16797,-0.835938 0.004,-0.0039 0.0117,-0.0039 0.0195,-0.0078 0.0859,0.121093 0.17188,0.242187 0.25781,0.363281 0.0273,-0.144531 0.0352,-0.277344 0.0469,-0.40625 0.0625,-0.574219 0.27734,-1.089844 0.60547,-1.554688 0.1914,-0.273437 0.39843,-0.535156 0.59765,-0.800781 0.0508,-0.06641 0.0977,-0.132812 0.14844,-0.207031 -0.0898,-0.06641 -0.17187,-0.121094 -0.25391,-0.183594 -0.0898,-0.06641 -0.18359,-0.136718 -0.26562,-0.210937 -0.11719,-0.113281 -0.11719,-0.117188 -0.22266,0.0078 -0.004,0.0039 -0.008,0.0078 -0.0117,0.01172 -0.22265,0.289062 -0.44921,0.578125 -0.67578,0.867188 -0.0234,0.03516 -0.0547,0.06641 -0.0937,0.113281 -0.0312,-0.109375 -0.0586,-0.195313 -0.0898,-0.300781 0.0508,0.02344 0.0703,0.03516 0.10937,0.05469 m 6.6211,1.195313 c 0.004,-0.0078 0.008,-0.01953 0.0117,-0.02734 -0.0117,-0.02344 -0.0195,-0.04687 -0.0312,-0.07031 -0.41016,-0.742187 -0.79688,-1.507812 -1.28907,-2.203125 -0.29687,-0.417968 -0.60156,-0.824218 -0.96484,-1.1875 -0.0156,-0.01953 -0.0625,-0.03516 -0.0781,-0.02734 -0.125,0.08203 -0.2461,0.164063 -0.36329,0.253907 -0.0156,0.01172 -0.0195,0.05859 -0.008,0.08203 0.0195,0.05859 0.0586,0.113281 0.0859,0.171875 0.17578,0.421875 0.34766,0.847656 0.51953,1.269531 0.008,0.01953 0.0117,0.03516 0.0234,0.07031 -0.39453,-0.125 -0.78125,-0.230469 -1.17969,-0.257813 -0.004,0 -0.004,0.0039 -0.0117,0.0078 0,0.01563 0.004,0.03516 0.004,0.07031 -0.21875,-0.05859 -0.42578,-0.117187 -0.65235,-0.175781 0.0234,0.04297 0.0352,0.0625 0.0508,0.08984 -0.0117,0 -0.0195,0.0039 -0.0273,0.0039 -0.38281,-0.105469 -0.77344,-0.195312 -1.14453,-0.328125 -0.48828,-0.175781 -0.96094,-0.390625 -1.44141,-0.589844 -0.0625,-0.02734 -0.082,-0.0078 -0.0937,0.04687 -0.0195,0.08984 0.0117,0.15625 0.0859,0.199219 0.375,0.210937 0.74219,0.425781 1.1211,0.625 1.00781,0.53125 2.07812,0.925781 3.14453,1.320313 0.64843,0.238281 1.32422,0.410156 1.98828,0.609374 0.0781,0.02344 0.16406,0.03125 0.25,0.04688"
         style="fill:#FFFFFF;fill-opacity:1;fill-rule:nonzero;stroke:none" />
    </g>
  </g>
</svg>
